<?xml version="1.0" encoding="UTF-8"?>
<svg xmlns="http://www.w3.org/2000/svg" xmlns:xlink="http://www.w3.org/1999/xlink" width="32px" height="32px" viewBox="0 0 32 32" version="1.1">
<g id="surface1">
<path style=" stroke:none;fill-rule:nonzero;fill:rgb(0%,0%,0%);fill-opacity:1;" d="M 15.554688 4.808594 C 14.523438 5.75 13.359375 7.082031 12.5 8.277344 C 9.5 12.46875 8.285156 17.703125 9.460938 21.34375 C 10.152344 23.503906 11.527344 25.175781 13.335938 26.089844 C 15.074219 26.953125 17.007812 26.976562 18.753906 26.132812 C 19.605469 25.71875 20.085938 25.363281 20.769531 24.648438 C 21.671875 23.707031 22.175781 22.878906 22.628906 21.609375 C 23.035156 20.472656 23.101562 20.003906 23.101562 18.21875 C 23.101562 16.40625 23.011719 15.792969 22.539062 14.082031 C 21.890625 11.800781 20.503906 9.203125 18.785156 7.082031 C 18.277344 6.464844 16.578125 4.6875 16.285156 4.476562 L 16.074219 4.328125 Z M 18.128906 7.277344 C 19.988281 9.476562 21.355469 12.070312 22.011719 14.609375 C 22.4375 16.265625 22.558594 17.296875 22.515625 18.710938 C 22.457031 20.375 22.101562 21.636719 21.332031 22.925781 C 20.726562 23.957031 19.558594 25.066406 18.59375 25.515625 C 17.648438 25.964844 17.242188 26.050781 16.066406 26.042969 C 15.082031 26.042969 14.914062 26.019531 14.375 25.832031 C 13.230469 25.441406 12.242188 24.738281 11.464844 23.761719 C 10.839844 22.96875 10.414062 22.21875 10.09375 21.261719 C 9.769531 20.292969 9.65625 19.492188 9.664062 18.167969 C 9.671875 16.144531 10.09375 14.269531 11.027344 12.085938 C 11.882812 10.09375 13.554688 7.683594 15.300781 5.921875 L 16.074219 5.140625 L 16.824219 5.886719 C 17.25 6.292969 17.828125 6.921875 18.128906 7.277344 Z M 18.128906 7.277344 "/>
<path style=" stroke:none;fill-rule:nonzero;fill:rgb(0%,0%,0%);fill-opacity:1;" d="M 7.113281 5.75 C 6.21875 6.953125 5.480469 8.578125 5.34375 9.65625 L 5.292969 10.015625 L 5.714844 10.265625 C 6.539062 10.753906 7.609375 11.621094 8.332031 12.375 C 8.730469 12.792969 9.070312 13.140625 9.09375 13.140625 C 9.105469 13.140625 9.21875 12.878906 9.332031 12.554688 C 9.617188 11.726562 10.324219 10.28125 10.957031 9.203125 C 11.25 8.699219 11.507812 8.261719 11.523438 8.242188 C 11.539062 8.21875 11.34375 7.96875 11.085938 7.691406 C 10.28125 6.796875 8.949219 5.898438 7.902344 5.539062 C 7.660156 5.457031 7.445312 5.386719 7.421875 5.386719 C 7.398438 5.394531 7.253906 5.554688 7.113281 5.75 Z M 8.128906 6.292969 C 8.695312 6.53125 9.730469 7.246094 10.25 7.742188 C 10.515625 7.992188 10.726562 8.226562 10.726562 8.261719 C 10.726562 8.300781 10.550781 8.625 10.347656 8.976562 C 9.898438 9.730469 9.21875 11.070312 9.03125 11.574219 C 8.957031 11.777344 8.878906 11.9375 8.859375 11.9375 C 8.84375 11.9375 8.625 11.753906 8.386719 11.527344 C 7.851562 11.035156 6.835938 10.242188 6.34375 9.933594 C 6.140625 9.816406 5.984375 9.679688 5.984375 9.625 C 5.984375 9.574219 6.074219 9.253906 6.179688 8.910156 C 6.511719 7.855469 7.4375 6.140625 7.671875 6.140625 C 7.730469 6.140625 7.941406 6.207031 8.128906 6.292969 Z M 8.128906 6.292969 "/>
<path style=" stroke:none;fill-rule:nonzero;fill:rgb(0%,0%,0%);fill-opacity:1;" d="M 24.027344 5.644531 C 22.96875 6.101562 22.273438 6.5625 21.453125 7.34375 C 21.175781 7.617188 20.875 7.925781 20.792969 8.035156 L 20.648438 8.25 L 21.152344 9.089844 C 21.925781 10.402344 22.792969 12.214844 23.082031 13.132812 C 23.09375 13.203125 23.207031 13.101562 23.378906 12.867188 C 23.910156 12.160156 24.800781 11.386719 26.105469 10.503906 L 26.878906 9.988281 L 26.8125 9.589844 C 26.707031 8.964844 26.332031 7.894531 25.976562 7.21875 C 25.617188 6.5 24.832031 5.386719 24.699219 5.386719 C 24.644531 5.386719 24.34375 5.5 24.027344 5.644531 Z M 25 6.757812 C 25.503906 7.546875 25.9375 8.519531 26.097656 9.195312 L 26.210938 9.664062 L 25.554688 10.101562 C 24.824219 10.605469 24.171875 11.125 23.652344 11.621094 L 23.296875 11.957031 L 23.171875 11.628906 C 22.9375 11.046875 22.238281 9.664062 21.808594 8.925781 L 21.386719 8.21875 L 21.867188 7.765625 C 22.433594 7.246094 23.386719 6.601562 24.058594 6.292969 C 24.320312 6.171875 24.539062 6.070312 24.546875 6.066406 C 24.546875 6.066406 24.757812 6.378906 25 6.757812 Z M 25 6.757812 "/>
<path style=" stroke:none;fill-rule:nonzero;fill:rgb(0%,0%,0%);fill-opacity:1;" d="M 1.101562 9.59375 C 1.222656 9.878906 1.410156 10.445312 1.523438 10.859375 L 1.730469 11.597656 L 1.703125 13.890625 C 1.628906 19.953125 1.628906 20.042969 2.117188 21.546875 C 2.996094 24.234375 5.164062 25.976562 8.164062 26.394531 C 8.890625 26.5 10.625 26.441406 11.394531 26.292969 L 11.867188 26.199219 L 11.476562 25.867188 C 9.738281 24.402344 8.601562 22.1875 8.308594 19.671875 C 8.152344 18.273438 8.277344 16.542969 8.699219 14.636719 C 8.789062 14.238281 8.785156 14.207031 8.601562 13.941406 C 7.609375 12.488281 5.523438 10.921875 3.273438 9.957031 C 2.644531 9.683594 1.003906 9.078125 0.90625 9.078125 C 0.890625 9.078125 0.980469 9.308594 1.101562 9.59375 Z M 2.652344 10.386719 C 4.585938 11.214844 6.035156 12.140625 7.160156 13.253906 C 8.183594 14.269531 8.183594 14.269531 8.046875 14.832031 C 7.683594 16.367188 7.535156 18.554688 7.707031 19.855469 C 8 22.046875 8.785156 23.835938 10.152344 25.441406 L 10.527344 25.875 L 9.175781 25.839844 C 7.601562 25.792969 7.015625 25.671875 5.933594 25.148438 C 4.605469 24.5 3.726562 23.617188 3.089844 22.292969 C 2.378906 20.832031 2.171875 19.425781 2.265625 16.828125 C 2.304688 15.855469 2.335938 14.261719 2.335938 13.292969 C 2.328125 11.71875 2.3125 11.445312 2.160156 10.859375 C 1.980469 10.136719 1.980469 10.128906 2.027344 10.128906 C 2.039062 10.128906 2.328125 10.242188 2.652344 10.386719 Z M 2.652344 10.386719 "/>
<path style=" stroke:none;fill-rule:nonzero;fill:rgb(0%,0%,0%);fill-opacity:1;" d="M 30.324219 9.40625 C 27.449219 10.417969 25.058594 11.980469 23.6875 13.757812 L 23.351562 14.203125 L 23.601562 15.382812 C 23.910156 16.917969 23.992188 19.003906 23.777344 20.148438 C 23.359375 22.476562 22.539062 24.078125 20.988281 25.597656 L 20.347656 26.222656 L 20.820312 26.304688 C 21.574219 26.449219 23.320312 26.492188 24.082031 26.394531 C 24.890625 26.292969 25.871094 26.003906 26.488281 25.695312 C 28.910156 24.476562 30.238281 22.292969 30.523438 19.050781 C 30.597656 18.242188 30.589844 17.636719 30.476562 15.542969 C 30.289062 12.109375 30.394531 11.214844 31.152344 9.421875 C 31.222656 9.265625 31.265625 9.128906 31.25 9.113281 C 31.238281 9.097656 30.820312 9.234375 30.324219 9.40625 Z M 30.183594 10.257812 C 29.769531 11.613281 29.695312 12.917969 29.875 15.722656 C 29.996094 17.625 30.003906 18.109375 29.925781 19.003906 C 29.625 22.535156 28.023438 24.730469 25.117188 25.605469 C 24.539062 25.777344 24.285156 25.808594 23.070312 25.84375 L 21.679688 25.882812 L 22.0625 25.441406 C 23.441406 23.835938 24.285156 21.796875 24.503906 19.539062 C 24.628906 18.199219 24.488281 16.363281 24.140625 14.894531 L 24.019531 14.351562 L 24.285156 14.027344 C 25.398438 12.691406 27.210938 11.394531 29.183594 10.535156 C 29.6875 10.316406 30.128906 10.136719 30.160156 10.128906 C 30.199219 10.128906 30.207031 10.191406 30.183594 10.257812 Z M 30.183594 10.257812 "/>
<path style=" stroke:none;fill-rule:nonzero;fill:rgb(0%,0%,0%);fill-opacity:1;" d="M 2.75 25.445312 C 1.863281 25.695312 1.539062 25.816406 1.175781 26.050781 C 0.914062 26.207031 0.859375 26.285156 0.882812 26.449219 C 0.964844 27.140625 4.351562 28.074219 8.46875 28.527344 C 11.875 28.902344 17.140625 29.027344 20.433594 28.8125 C 26.363281 28.414062 31.265625 27.328125 31.265625 26.402344 C 31.265625 26.367188 31.175781 26.246094 31.070312 26.140625 C 30.84375 25.914062 30.324219 25.703125 29.363281 25.445312 L 28.699219 25.265625 L 28.367188 25.523438 L 28.039062 25.773438 L 28.617188 25.898438 C 29.398438 26.066406 30.238281 26.34375 30.265625 26.441406 C 30.3125 26.570312 28.789062 27.035156 27.519531 27.285156 C 24.207031 27.941406 20.4375 28.261719 16.097656 28.269531 C 10.550781 28.269531 5.5625 27.707031 2.449219 26.71875 C 2.117188 26.613281 1.84375 26.5 1.84375 26.457031 C 1.84375 26.335938 2.71875 26.066406 3.757812 25.863281 L 4.195312 25.773438 L 3.808594 25.515625 C 3.605469 25.371094 3.417969 25.257812 3.410156 25.265625 C 3.398438 25.265625 3.101562 25.351562 2.75 25.445312 Z M 2.75 25.445312 "/>
<path style=" stroke:none;fill-rule:nonzero;fill:rgb(0%,0%,0%);fill-opacity:1;" d="M 9.695312 31.933594 C 9.589844 32.054688 9.324219 32.507812 9.105469 32.953125 C 8.746094 33.695312 8.65625 33.824219 7.765625 34.71875 C 6.863281 35.648438 5.503906 37.226562 5.058594 37.882812 C 4.863281 38.167969 4.808594 38.191406 4.417969 38.242188 C 3.832031 38.308594 2.261719 38.617188 1.726562 38.769531 C -0.722656 39.445312 -2.5625 40.570312 -3.082031 41.683594 C -3.316406 42.179688 -3.332031 42.84375 -3.128906 43.292969 C -2.960938 43.652344 -2.511719 44.054688 -2.144531 44.152344 C -1.441406 44.347656 -0.292969 44.175781 0.574219 43.730469 C 1.527344 43.25 3.125 41.757812 4.398438 40.164062 C 4.742188 39.726562 5.089844 39.296875 5.164062 39.199219 C 5.300781 39.042969 5.359375 39.035156 6.390625 39.035156 C 6.992188 39.035156 7.496094 39.054688 7.511719 39.085938 C 7.535156 39.125 7.503906 39.5 7.445312 39.9375 C 7.34375 40.75 7.308594 42.554688 7.382812 42.851562 C 7.429688 43.007812 7.476562 43.023438 7.976562 43.023438 L 8.519531 43.023438 L 8.574219 41.984375 C 8.617188 41.019531 8.722656 39.914062 8.8125 39.351562 L 8.851562 39.109375 L 10.324219 39.109375 L 10.378906 38.820312 C 10.492188 38.144531 10.445312 38.101562 9.558594 38.03125 C 9.265625 38.011719 9.023438 37.988281 9.015625 37.988281 C 9.011719 37.980469 9.015625 37.867188 9.039062 37.730469 C 9.324219 36.078125 9.707031 34.738281 10.242188 33.605469 C 10.71875 32.589844 10.769531 32.222656 10.460938 31.921875 C 10.21875 31.671875 9.941406 31.679688 9.695312 31.933594 Z M 8.128906 36.21875 C 8.0625 36.503906 7.957031 37 7.886719 37.324219 C 7.804688 37.730469 7.722656 37.933594 7.625 37.988281 C 7.550781 38.023438 7.164062 38.046875 6.773438 38.042969 L 6.058594 38.015625 L 6.480469 37.492188 C 6.910156 36.941406 8.171875 35.625 8.21875 35.667969 C 8.234375 35.683594 8.1875 35.933594 8.128906 36.21875 Z M 4.113281 39.242188 C 3.726562 39.96875 2.011719 41.796875 1.242188 42.308594 C -0.328125 43.355469 -1.796875 43.054688 -1.578125 41.742188 C -1.464844 41.09375 -0.425781 40.183594 0.6875 39.761719 C 1.574219 39.425781 2.9375 39.152344 3.898438 39.117188 C 4.148438 39.109375 4.175781 39.125 4.113281 39.242188 Z M 4.113281 39.242188 "/>
</g>
</svg>
