<svg version="1.1" viewBox="0.025599616000000002 0 16.032 15.84" xmlns:xlink="http://www.w3.org/1999/xlink" xmlns="http://www.w3.org/2000/svg" style="max-height: 500px" width="16.032" height="15.84">
<style>
    .favicon-stroke {
      stroke: none;
      fill-rule: nonzero;
      fill: rgb(0%,0%,0%);
      fill-opacity: 1;
    }
    @media (prefers-color-scheme: dark) {
      .favicon-stroke {
      stroke: none;
      fill-rule: nonzero;
      fill: rgb(255%,255%,255%);
      fill-opacity: 1;
    }
    }
</style>
<g id="surface1">
<path id="1" class="favicon-stroke" d="M 7.777344 2.402344 C 7.261719 2.875 6.679688 3.539062 6.25 4.140625 C 4.75 6.234375 4.144531 8.851562 4.730469 10.671875 C 5.078125 11.753906 5.765625 12.585938 6.667969 13.042969 C 7.535156 13.476562 8.503906 13.488281 9.375 13.066406 C 9.800781 12.859375 10.042969 12.683594 10.382812 12.324219 C 10.835938 11.855469 11.089844 11.441406 11.3125 10.804688 C 11.515625 10.234375 11.550781 10.003906 11.550781 9.109375 C 11.550781 8.203125 11.507812 7.894531 11.269531 7.039062 C 10.945312 5.898438 10.253906 4.601562 9.390625 3.539062 C 9.140625 3.230469 8.289062 2.34375 8.144531 2.238281 L 8.035156 2.164062 Z M 9.0625 3.636719 C 9.992188 4.738281 10.679688 6.035156 11.007812 7.304688 C 11.21875 8.132812 11.28125 8.648438 11.257812 9.355469 C 11.226562 10.1875 11.050781 10.820312 10.667969 11.460938 C 10.363281 11.976562 9.777344 12.53125 9.296875 12.757812 C 8.824219 12.984375 8.621094 13.023438 8.035156 13.019531 C 7.539062 13.019531 7.457031 13.011719 7.1875 12.914062 C 6.613281 12.71875 6.121094 12.371094 5.730469 11.878906 C 5.417969 11.484375 5.207031 11.109375 5.046875 10.632812 C 4.882812 10.144531 4.828125 9.746094 4.832031 9.085938 C 4.835938 8.074219 5.046875 7.136719 5.511719 6.042969 C 5.941406 5.046875 6.777344 3.839844 7.648438 2.960938 L 8.035156 2.570312 L 8.414062 2.941406 C 8.625 3.144531 8.914062 3.460938 9.0625 3.636719 Z M 9.0625 3.636719"/>
<path id="2" class="favicon-stroke" d="M 3.558594 2.875 C 3.109375 3.476562 2.738281 4.289062 2.671875 4.828125 L 2.648438 5.007812 L 2.855469 5.132812 C 3.269531 5.378906 3.804688 5.8125 4.164062 6.1875 C 4.367188 6.398438 4.535156 6.570312 4.546875 6.570312 C 4.554688 6.570312 4.609375 6.4375 4.667969 6.277344 C 4.808594 5.863281 5.164062 5.140625 5.480469 4.601562 C 5.625 4.347656 5.753906 4.132812 5.761719 4.121094 C 5.769531 4.109375 5.671875 3.984375 5.542969 3.847656 C 5.140625 3.398438 4.472656 2.949219 3.953125 2.769531 C 3.832031 2.726562 3.722656 2.695312 3.710938 2.695312 C 3.699219 2.699219 3.628906 2.777344 3.558594 2.875 Z M 4.0625 3.144531 C 4.347656 3.265625 4.867188 3.625 5.125 3.871094 C 5.257812 3.996094 5.363281 4.113281 5.363281 4.132812 C 5.363281 4.148438 5.277344 4.3125 5.171875 4.488281 C 4.949219 4.867188 4.609375 5.535156 4.515625 5.785156 C 4.476562 5.890625 4.441406 5.96875 4.429688 5.96875 C 4.421875 5.96875 4.3125 5.878906 4.191406 5.765625 C 3.925781 5.515625 3.417969 5.121094 3.171875 4.96875 C 3.070312 4.90625 2.992188 4.839844 2.992188 4.8125 C 2.992188 4.785156 3.035156 4.628906 3.089844 4.457031 C 3.253906 3.929688 3.71875 3.070312 3.835938 3.070312 C 3.863281 3.070312 3.972656 3.105469 4.0625 3.144531 Z M 4.0625 3.144531"/>
<path id="3" class="favicon-stroke" d="M 12.015625 2.824219 C 11.484375 3.050781 11.136719 3.28125 10.726562 3.671875 C 10.585938 3.808594 10.4375 3.960938 10.398438 4.019531 L 10.324219 4.125 L 10.578125 4.546875 C 10.964844 5.199219 11.398438 6.109375 11.539062 6.566406 C 11.546875 6.601562 11.605469 6.550781 11.691406 6.433594 C 11.953125 6.082031 12.402344 5.695312 13.050781 5.253906 L 13.441406 4.992188 L 13.40625 4.792969 C 13.351562 4.480469 13.164062 3.949219 12.988281 3.609375 C 12.808594 3.25 12.417969 2.695312 12.347656 2.695312 C 12.320312 2.695312 12.171875 2.75 12.015625 2.824219 Z M 12.5 3.378906 C 12.75 3.773438 12.96875 4.261719 13.046875 4.597656 L 13.105469 4.832031 L 12.777344 5.050781 C 12.414062 5.300781 12.085938 5.5625 11.824219 5.8125 L 11.648438 5.980469 L 11.585938 5.8125 C 11.46875 5.523438 11.117188 4.832031 10.902344 4.460938 L 10.695312 4.109375 L 10.933594 3.882812 C 11.214844 3.625 11.695312 3.300781 12.027344 3.144531 C 12.160156 3.085938 12.269531 3.035156 12.273438 3.03125 C 12.273438 3.03125 12.378906 3.191406 12.5 3.378906 Z M 12.5 3.378906" />
<path id="4" class="favicon-stroke" d="M 0.550781 4.796875 C 0.609375 4.941406 0.703125 5.222656 0.761719 5.429688 L 0.867188 5.796875 L 0.851562 6.945312 C 0.8125 9.976562 0.8125 10.023438 1.058594 10.773438 C 1.496094 12.117188 2.582031 12.988281 4.082031 13.199219 C 4.445312 13.25 5.3125 13.222656 5.695312 13.144531 L 5.933594 13.097656 L 5.738281 12.933594 C 4.871094 12.199219 4.300781 11.09375 4.15625 9.835938 C 4.074219 9.136719 4.140625 8.273438 4.351562 7.320312 C 4.394531 7.121094 4.390625 7.105469 4.300781 6.96875 C 3.804688 6.242188 2.761719 5.460938 1.636719 4.976562 C 1.320312 4.84375 0.5 4.539062 0.453125 4.539062 C 0.445312 4.539062 0.488281 4.65625 0.550781 4.796875 Z M 1.324219 5.191406 C 2.292969 5.605469 3.019531 6.070312 3.578125 6.625 C 4.089844 7.136719 4.089844 7.136719 4.023438 7.417969 C 3.84375 8.183594 3.765625 9.277344 3.855469 9.925781 C 4 11.023438 4.390625 11.917969 5.078125 12.71875 L 5.265625 12.9375 L 4.585938 12.917969 C 3.800781 12.898438 3.507812 12.835938 2.964844 12.574219 C 2.304688 12.25 1.863281 11.808594 1.542969 11.148438 C 1.191406 10.417969 1.085938 9.710938 1.132812 8.414062 C 1.152344 7.929688 1.167969 7.132812 1.167969 6.644531 C 1.164062 5.859375 1.15625 5.722656 1.082031 5.429688 C 0.992188 5.070312 0.992188 5.066406 1.011719 5.066406 C 1.019531 5.066406 1.164062 5.121094 1.324219 5.191406 Z M 1.324219 5.191406" />
<path id="5" class="favicon-stroke" d="M 15.164062 4.703125 C 13.726562 5.207031 12.53125 5.992188 11.84375 6.878906 L 11.675781 7.101562 L 11.800781 7.691406 C 11.953125 8.460938 11.996094 9.5 11.890625 10.074219 C 11.679688 11.238281 11.269531 12.039062 10.496094 12.796875 L 10.171875 13.109375 L 10.410156 13.152344 C 10.789062 13.222656 11.660156 13.246094 12.039062 13.199219 C 12.445312 13.144531 12.933594 13 13.246094 12.847656 C 14.457031 12.238281 15.117188 11.148438 15.261719 9.523438 C 15.296875 9.121094 15.296875 8.816406 15.238281 7.769531 C 15.144531 6.054688 15.195312 5.605469 15.578125 4.710938 C 15.609375 4.632812 15.632812 4.5625 15.625 4.558594 C 15.617188 4.546875 15.410156 4.617188 15.164062 4.703125 Z M 15.089844 5.128906 C 14.882812 5.804688 14.847656 6.457031 14.9375 7.859375 C 14.996094 8.8125 15 9.054688 14.964844 9.5 C 14.8125 11.265625 14.011719 12.367188 12.558594 12.800781 C 12.269531 12.890625 12.140625 12.902344 11.535156 12.921875 L 10.839844 12.941406 L 11.03125 12.71875 C 11.722656 11.917969 12.140625 10.898438 12.25 9.769531 C 12.316406 9.097656 12.242188 8.179688 12.070312 7.449219 L 12.007812 7.175781 L 12.140625 7.015625 C 12.699219 6.34375 13.605469 5.699219 14.589844 5.269531 C 14.84375 5.160156 15.066406 5.070312 15.082031 5.066406 C 15.097656 5.066406 15.101562 5.09375 15.089844 5.128906 Z M 15.089844 5.128906" />
<path id="6" class="favicon-stroke" d="M 1.375 12.722656 C 0.929688 12.847656 0.769531 12.910156 0.585938 13.023438 C 0.457031 13.105469 0.429688 13.140625 0.441406 13.222656 C 0.484375 13.570312 2.175781 14.035156 4.234375 14.261719 C 5.9375 14.449219 8.570312 14.515625 10.214844 14.40625 C 13.179688 14.207031 15.632812 13.664062 15.632812 13.203125 C 15.632812 13.183594 15.585938 13.125 15.535156 13.070312 C 15.421875 12.957031 15.164062 12.851562 14.683594 12.722656 L 14.351562 12.632812 L 14.183594 12.761719 L 14.019531 12.886719 L 14.308594 12.949219 C 14.699219 13.03125 15.117188 13.171875 15.132812 13.222656 C 15.15625 13.285156 14.394531 13.519531 13.757812 13.640625 C 12.105469 13.96875 10.21875 14.132812 8.046875 14.136719 C 5.277344 14.136719 2.78125 13.851562 1.222656 13.359375 C 1.058594 13.308594 0.921875 13.25 0.921875 13.226562 C 0.921875 13.167969 1.359375 13.03125 1.878906 12.929688 L 2.097656 12.886719 L 1.90625 12.757812 C 1.804688 12.6875 1.710938 12.628906 1.707031 12.632812 C 1.699219 12.632812 1.550781 12.675781 1.375 12.722656 Z M 1.375 12.722656" />
<path id="7" class="favicon-stroke" d="M 4.847656 15.96875 C 4.792969 16.027344 4.664062 16.253906 4.554688 16.476562 C 4.371094 16.847656 4.328125 16.910156 3.882812 17.359375 C 3.433594 17.824219 2.75 18.613281 2.53125 18.941406 C 2.433594 19.085938 2.40625 19.09375 2.210938 19.121094 C 1.917969 19.15625 1.128906 19.308594 0.863281 19.386719 C -0.359375 19.722656 -1.28125 20.285156 -1.539062 20.839844 C -1.65625 21.089844 -1.664062 21.421875 -1.566406 21.648438 C -1.480469 21.828125 -1.253906 22.027344 -1.070312 22.074219 C -0.722656 22.171875 -0.144531 22.085938 0.285156 21.863281 C 0.765625 21.625 1.5625 20.878906 2.199219 20.082031 C 2.371094 19.863281 2.542969 19.648438 2.582031 19.597656 C 2.648438 19.519531 2.679688 19.515625 3.195312 19.515625 C 3.496094 19.515625 3.746094 19.527344 3.757812 19.542969 C 3.765625 19.5625 3.75 19.75 3.722656 19.96875 C 3.671875 20.375 3.65625 21.277344 3.691406 21.425781 C 3.714844 21.503906 3.738281 21.511719 3.988281 21.511719 L 4.257812 21.511719 L 4.285156 20.992188 C 4.308594 20.511719 4.359375 19.957031 4.40625 19.675781 L 4.425781 19.554688 L 5.164062 19.554688 L 5.1875 19.410156 C 5.246094 19.074219 5.222656 19.050781 4.777344 19.015625 C 4.632812 19.003906 4.511719 18.992188 4.507812 18.992188 C 4.503906 18.988281 4.507812 18.933594 4.519531 18.867188 C 4.664062 18.039062 4.855469 17.367188 5.121094 16.804688 C 5.359375 16.296875 5.382812 16.109375 5.230469 15.960938 C 5.109375 15.835938 4.972656 15.839844 4.847656 15.96875 Z M 4.0625 18.109375 C 4.03125 18.253906 3.976562 18.5 3.945312 18.660156 C 3.902344 18.867188 3.859375 18.96875 3.8125 18.992188 C 3.773438 19.011719 3.582031 19.023438 3.386719 19.019531 L 3.03125 19.007812 L 3.242188 18.746094 C 3.453125 18.472656 4.085938 17.8125 4.109375 17.835938 C 4.117188 17.84375 4.09375 17.964844 4.0625 18.109375 Z M 2.054688 19.621094 C 1.863281 19.984375 1.007812 20.898438 0.621094 21.152344 C -0.164062 21.675781 -0.898438 21.527344 -0.789062 20.871094 C -0.730469 20.546875 -0.214844 20.09375 0.34375 19.882812 C 0.785156 19.710938 1.46875 19.578125 1.949219 19.558594 C 2.074219 19.554688 2.089844 19.5625 2.054688 19.621094 Z M 2.054688 19.621094" />
</g>
</svg>