<?xml version="1.0" encoding="UTF-8"?>
<svg xmlns="http://www.w3.org/2000/svg" xmlns:xlink="http://www.w3.org/1999/xlink" width="200px" height="112px" viewBox="0 0 199 112" version="1.1">
<g id="surface1">
<path style=" stroke:none;fill-rule:nonzero;fill:rgb(0%,0%,0%);fill-opacity:1;" d="M 98.726562 14.996094 C 97.019531 16.554688 95.089844 18.761719 93.667969 20.746094 C 88.695312 27.6875 86.6875 36.351562 88.632812 42.386719 C 89.78125 45.964844 92.058594 48.730469 95.050781 50.242188 C 97.929688 51.675781 101.132812 51.710938 104.023438 50.316406 C 105.433594 49.628906 106.230469 49.042969 107.363281 47.859375 C 108.859375 46.300781 109.695312 44.929688 110.441406 42.824219 C 111.113281 40.941406 111.226562 40.167969 111.226562 37.210938 C 111.226562 34.207031 111.078125 33.1875 110.292969 30.355469 C 109.21875 26.578125 106.925781 22.277344 104.074219 18.761719 C 103.238281 17.738281 100.421875 14.796875 99.9375 14.449219 L 99.585938 14.199219 Z M 102.988281 19.085938 C 106.066406 22.726562 108.335938 27.027344 109.421875 31.230469 C 110.128906 33.972656 110.328125 35.679688 110.253906 38.023438 C 110.15625 40.777344 109.570312 42.871094 108.296875 45.003906 C 107.289062 46.710938 105.355469 48.546875 103.761719 49.292969 C 102.191406 50.039062 101.519531 50.179688 99.574219 50.164062 C 97.941406 50.164062 97.667969 50.128906 96.769531 49.816406 C 94.875 49.167969 93.242188 48.007812 91.949219 46.386719 C 90.914062 45.078125 90.214844 43.832031 89.679688 42.25 C 89.144531 40.640625 88.957031 39.320312 88.96875 37.125 C 88.980469 33.773438 89.679688 30.667969 91.226562 27.050781 C 92.644531 23.75 95.414062 19.757812 98.304688 16.84375 L 99.585938 15.546875 L 100.832031 16.78125 C 101.53125 17.453125 102.492188 18.5 102.988281 19.085938 Z M 102.988281 19.085938 "/>
<path style=" stroke:none;fill-rule:nonzero;fill:rgb(0%,0%,0%);fill-opacity:1;" d="M 84.746094 16.554688 C 83.261719 18.550781 82.039062 21.242188 81.816406 23.027344 L 81.730469 23.625 L 82.425781 24.035156 C 83.796875 24.847656 85.566406 26.28125 86.761719 27.527344 C 87.425781 28.222656 87.984375 28.796875 88.023438 28.796875 C 88.046875 28.796875 88.234375 28.363281 88.421875 27.824219 C 88.894531 26.453125 90.066406 24.0625 91.113281 22.277344 C 91.597656 21.441406 92.023438 20.71875 92.046875 20.683594 C 92.074219 20.644531 91.75 20.234375 91.324219 19.773438 C 89.992188 18.289062 87.785156 16.804688 86.054688 16.207031 C 85.652344 16.070312 85.292969 15.957031 85.253906 15.957031 C 85.21875 15.96875 84.980469 16.230469 84.746094 16.554688 Z M 86.425781 17.453125 C 87.363281 17.851562 89.082031 19.035156 89.941406 19.859375 C 90.378906 20.269531 90.726562 20.65625 90.726562 20.71875 C 90.726562 20.78125 90.441406 21.316406 90.101562 21.902344 C 89.355469 23.152344 88.234375 25.371094 87.921875 26.203125 C 87.796875 26.542969 87.671875 26.804688 87.636719 26.804688 C 87.609375 26.804688 87.25 26.503906 86.851562 26.128906 C 85.964844 25.308594 84.285156 24 83.472656 23.488281 C 83.136719 23.289062 82.875 23.0625 82.875 22.976562 C 82.875 22.890625 83.023438 22.363281 83.199219 21.792969 C 83.746094 20.046875 85.28125 17.203125 85.667969 17.203125 C 85.765625 17.203125 86.117188 17.316406 86.425781 17.453125 Z M 86.425781 17.453125 "/>
<path style=" stroke:none;fill-rule:nonzero;fill:rgb(0%,0%,0%);fill-opacity:1;" d="M 112.761719 16.382812 C 111.003906 17.140625 109.855469 17.902344 108.496094 19.199219 C 108.035156 19.648438 107.539062 20.160156 107.402344 20.34375 L 107.164062 20.695312 L 108 22.089844 C 109.28125 24.261719 110.714844 27.265625 111.191406 28.785156 C 111.214844 28.898438 111.402344 28.734375 111.6875 28.347656 C 112.5625 27.175781 114.042969 25.894531 116.199219 24.433594 L 117.484375 23.574219 L 117.371094 22.914062 C 117.195312 21.878906 116.574219 20.109375 115.988281 18.988281 C 115.390625 17.800781 114.09375 15.957031 113.871094 15.957031 C 113.78125 15.957031 113.285156 16.144531 112.761719 16.382812 Z M 114.367188 18.226562 C 115.203125 19.535156 115.925781 21.144531 116.1875 22.265625 L 116.375 23.039062 L 115.289062 23.761719 C 114.082031 24.597656 112.996094 25.457031 112.136719 26.28125 L 111.550781 26.839844 L 111.339844 26.292969 C 110.953125 25.332031 109.792969 23.039062 109.082031 21.816406 L 108.386719 20.644531 L 109.183594 19.898438 C 110.117188 19.035156 111.699219 17.964844 112.808594 17.453125 C 113.246094 17.253906 113.609375 17.089844 113.621094 17.078125 C 113.621094 17.078125 113.96875 17.601562 114.367188 18.226562 Z M 114.367188 18.226562 "/>
<path style=" stroke:none;fill-rule:nonzero;fill:rgb(0%,0%,0%);fill-opacity:1;" d="M 74.785156 22.925781 C 74.988281 23.398438 75.296875 24.335938 75.484375 25.019531 L 75.832031 26.242188 L 75.785156 30.042969 C 75.660156 40.082031 75.660156 40.230469 76.46875 42.722656 C 77.925781 47.171875 81.515625 50.054688 86.488281 50.75 C 87.6875 50.925781 90.5625 50.828125 91.835938 50.578125 L 92.621094 50.425781 L 91.972656 49.878906 C 89.09375 47.449219 87.210938 43.78125 86.726562 39.617188 C 86.464844 37.300781 86.675781 34.433594 87.375 31.277344 C 87.523438 30.617188 87.511719 30.566406 87.210938 30.121094 C 85.566406 27.714844 82.113281 25.121094 78.386719 23.523438 C 77.34375 23.074219 74.625 22.066406 74.464844 22.066406 C 74.4375 22.066406 74.585938 22.453125 74.785156 22.925781 Z M 77.355469 24.234375 C 80.558594 25.605469 82.960938 27.140625 84.820312 28.984375 C 86.515625 30.667969 86.515625 30.667969 86.289062 31.601562 C 85.691406 34.144531 85.441406 37.761719 85.730469 39.917969 C 86.214844 43.546875 87.511719 46.511719 89.78125 49.167969 L 90.402344 49.890625 L 88.160156 49.828125 C 85.554688 49.753906 84.582031 49.554688 82.789062 48.683594 C 80.59375 47.609375 79.136719 46.152344 78.078125 43.957031 C 76.90625 41.539062 76.558594 39.207031 76.71875 34.90625 C 76.78125 33.296875 76.832031 30.65625 76.832031 29.046875 C 76.820312 26.441406 76.792969 25.992188 76.542969 25.019531 C 76.246094 23.824219 76.246094 23.8125 76.320312 23.8125 C 76.34375 23.8125 76.820312 24 77.355469 24.234375 Z M 77.355469 24.234375 "/>
<path style=" stroke:none;fill-rule:nonzero;fill:rgb(0%,0%,0%);fill-opacity:1;" d="M 123.191406 22.613281 C 118.429688 24.285156 114.46875 26.878906 112.199219 29.820312 L 111.636719 30.554688 L 112.050781 32.511719 C 112.5625 35.054688 112.699219 38.507812 112.347656 40.402344 C 111.652344 44.257812 110.292969 46.910156 107.726562 49.429688 L 106.664062 50.464844 L 107.449219 50.601562 C 108.699219 50.839844 111.589844 50.914062 112.847656 50.75 C 114.191406 50.578125 115.8125 50.101562 116.835938 49.59375 C 120.847656 47.574219 123.042969 43.957031 123.515625 38.585938 C 123.640625 37.25 123.628906 36.242188 123.441406 32.773438 C 123.128906 27.089844 123.304688 25.605469 124.5625 22.640625 C 124.675781 22.378906 124.75 22.152344 124.722656 22.128906 C 124.699219 22.101562 124.011719 22.328125 123.191406 22.613281 Z M 122.953125 24.023438 C 122.269531 26.265625 122.144531 28.425781 122.441406 33.074219 C 122.644531 36.226562 122.65625 37.027344 122.53125 38.507812 C 122.03125 44.355469 119.378906 47.996094 114.566406 49.441406 C 113.609375 49.730469 113.183594 49.777344 111.175781 49.839844 L 108.871094 49.902344 L 109.507812 49.167969 C 111.789062 46.511719 113.183594 43.132812 113.546875 39.394531 C 113.757812 37.175781 113.519531 34.132812 112.945312 31.703125 L 112.746094 30.804688 L 113.183594 30.269531 C 115.027344 28.050781 118.03125 25.90625 121.296875 24.484375 C 122.132812 24.121094 122.867188 23.824219 122.917969 23.8125 C 122.980469 23.8125 122.992188 23.910156 122.953125 24.023438 Z M 122.953125 24.023438 "/>
<path style=" stroke:none;fill-rule:nonzero;fill:rgb(0%,0%,0%);fill-opacity:1;" d="M 77.515625 49.179688 C 76.046875 49.59375 75.511719 49.792969 74.910156 50.179688 C 74.476562 50.441406 74.386719 50.566406 74.425781 50.839844 C 74.5625 51.984375 80.171875 53.53125 86.988281 54.28125 C 92.632812 54.902344 101.355469 55.113281 106.804688 54.753906 C 116.625 54.09375 124.75 52.296875 124.75 50.765625 C 124.75 50.703125 124.597656 50.503906 124.425781 50.328125 C 124.050781 49.953125 123.191406 49.605469 121.597656 49.179688 L 120.5 48.882812 L 119.949219 49.304688 L 119.402344 49.71875 L 120.363281 49.929688 C 121.65625 50.203125 123.042969 50.664062 123.089844 50.828125 C 123.167969 51.039062 120.648438 51.8125 118.542969 52.222656 C 113.058594 53.308594 106.816406 53.84375 99.625 53.855469 C 90.441406 53.855469 82.175781 52.921875 77.019531 51.289062 C 76.46875 51.113281 76.019531 50.925781 76.019531 50.851562 C 76.019531 50.652344 77.464844 50.203125 79.1875 49.867188 L 79.910156 49.71875 L 79.273438 49.292969 C 78.9375 49.054688 78.625 48.867188 78.613281 48.882812 C 78.589844 48.882812 78.101562 49.019531 77.515625 49.179688 Z M 77.515625 49.179688 "/>
<path style=" stroke:none;fill-rule:nonzero;fill:rgb(0%,0%,0%);fill-opacity:1;" d="M 32.9375 58.992188 C 32.039062 60.476562 30.558594 63.964844 28.078125 70.4375 C 27.230469 72.628906 25.933594 76.570312 25.847656 77.167969 L 25.773438 77.730469 L 26.519531 77.992188 L 27.269531 78.265625 L 28.402344 75.996094 C 30.085938 72.617188 31.515625 70.871094 33.039062 70.375 C 33.472656 70.222656 33.6875 70.210938 33.996094 70.324219 C 34.472656 70.484375 34.644531 70.761719 34.644531 71.359375 C 34.644531 72.167969 33.8125 72.828125 32.003906 73.476562 C 31.691406 73.589844 31.28125 73.828125 31.09375 74 C 30.792969 74.277344 30.757812 74.375 30.832031 74.835938 C 30.980469 75.796875 32.101562 77.578125 32.964844 78.242188 C 33.523438 78.664062 34.382812 78.765625 35.070312 78.476562 C 35.628906 78.242188 36.589844 77.367188 37.089844 76.65625 L 37.4375 76.144531 L 37.152344 75.910156 C 36.988281 75.773438 36.828125 75.671875 36.777344 75.671875 C 36.726562 75.671875 36.402344 75.898438 36.027344 76.171875 C 35.230469 76.769531 34.683594 76.832031 33.996094 76.359375 C 33.574219 76.070312 33.0625 75.222656 32.839844 74.464844 C 32.75 74.152344 32.714844 74.1875 34.519531 73.191406 C 35.679688 72.554688 36.328125 71.96875 36.652344 71.257812 C 37.089844 70.285156 36.875 69.089844 36.164062 68.605469 C 35.917969 68.441406 35.605469 68.378906 34.957031 68.390625 C 33.101562 68.390625 31.378906 69.675781 29.222656 72.667969 C 28.960938 73.042969 28.714844 73.277344 28.6875 73.203125 C 28.625 73.003906 29.898438 69.175781 30.71875 67.070312 C 31.691406 64.613281 32.402344 63.03125 33.574219 60.761719 L 34.609375 58.753906 L 34.035156 58.542969 C 33.722656 58.429688 33.4375 58.34375 33.398438 58.34375 C 33.363281 58.34375 33.148438 58.644531 32.9375 58.992188 Z M 32.9375 58.992188 "/>
<path style=" stroke:none;fill-rule:nonzero;fill:rgb(0%,0%,0%);fill-opacity:1;" d="M 132.511719 60.675781 C 130.582031 64.714844 129.472656 67.269531 128.363281 70.25 C 127.128906 73.539062 126.070312 77.316406 126.332031 77.542969 C 126.457031 77.65625 127.640625 78.054688 127.703125 78.003906 C 127.714844 77.980469 128.015625 77.40625 128.351562 76.71875 C 129.535156 74.3125 131.589844 71.632812 132.648438 71.132812 C 133.234375 70.859375 133.882812 70.871094 134.15625 71.183594 C 134.496094 71.546875 134.355469 72.34375 133.609375 74.425781 C 132.664062 77.03125 132.636719 78.039062 133.484375 78.476562 C 133.972656 78.726562 135.054688 78.703125 135.652344 78.425781 C 136.175781 78.191406 137.210938 77.167969 137.210938 76.894531 C 137.210938 76.808594 137.097656 76.65625 136.960938 76.570312 C 136.738281 76.433594 136.636719 76.457031 136.238281 76.730469 C 135.726562 77.082031 135.082031 77.144531 134.84375 76.855469 C 134.542969 76.496094 134.792969 75.421875 135.628906 73.355469 C 136.601562 70.984375 136.835938 70.039062 136.574219 69.5 C 136.140625 68.589844 134.707031 68.355469 133.472656 68.988281 C 132.25 69.625 130.582031 71.457031 129.109375 73.789062 C 128.875 74.164062 128.660156 74.402344 128.636719 74.3125 C 128.585938 74.152344 129.621094 70.949219 130.492188 68.589844 C 131.21875 66.644531 132.875 62.90625 133.957031 60.75 C 134.371094 59.902344 134.71875 59.167969 134.71875 59.105469 C 134.71875 58.96875 134.046875 58.71875 133.695312 58.71875 C 133.511719 58.71875 133.25 59.152344 132.511719 60.675781 Z M 132.511719 60.675781 "/>
<path style=" stroke:none;fill-rule:nonzero;fill:rgb(0%,0%,0%);fill-opacity:1;" d="M 89.019531 59.925781 C 88.84375 60.125 88.410156 60.875 88.046875 61.609375 C 87.449219 62.84375 87.300781 63.054688 85.828125 64.539062 C 84.332031 66.074219 82.078125 68.691406 81.34375 69.777344 C 81.019531 70.25 80.929688 70.285156 80.28125 70.375 C 79.3125 70.484375 76.707031 70.996094 75.820312 71.246094 C 71.769531 72.367188 68.71875 74.226562 67.859375 76.070312 C 67.472656 76.894531 67.445312 77.992188 67.78125 78.738281 C 68.058594 79.335938 68.804688 80 69.414062 80.160156 C 70.574219 80.484375 72.480469 80.199219 73.914062 79.460938 C 75.496094 78.664062 78.140625 76.195312 80.246094 73.554688 C 80.820312 72.828125 81.390625 72.121094 81.515625 71.957031 C 81.742188 71.695312 81.839844 71.683594 83.546875 71.683594 C 84.546875 71.683594 85.378906 71.71875 85.40625 71.769531 C 85.441406 71.832031 85.390625 72.457031 85.292969 73.179688 C 85.128906 74.523438 85.070312 77.515625 85.191406 78.003906 C 85.269531 78.265625 85.34375 78.289062 86.175781 78.289062 L 87.074219 78.289062 L 87.164062 76.570312 C 87.238281 74.972656 87.410156 73.140625 87.5625 72.207031 L 87.625 71.808594 L 90.066406 71.808594 L 90.152344 71.332031 C 90.339844 70.210938 90.265625 70.136719 88.792969 70.023438 C 88.308594 69.988281 87.910156 69.949219 87.898438 69.949219 C 87.886719 69.9375 87.898438 69.75 87.933594 69.527344 C 88.410156 66.785156 89.042969 64.566406 89.929688 62.695312 C 90.714844 61.011719 90.800781 60.402344 90.289062 59.902344 C 89.890625 59.492188 89.429688 59.503906 89.019531 59.925781 Z M 86.425781 67.019531 C 86.316406 67.496094 86.140625 68.316406 86.027344 68.851562 C 85.890625 69.527344 85.753906 69.863281 85.59375 69.949219 C 85.46875 70.011719 84.832031 70.050781 84.183594 70.039062 L 83 70 L 83.699219 69.128906 C 84.40625 68.21875 86.5 66.035156 86.578125 66.109375 C 86.601562 66.136719 86.527344 66.546875 86.425781 67.019531 Z M 79.773438 72.03125 C 79.136719 73.230469 76.296875 76.257812 75.023438 77.105469 C 72.417969 78.839844 69.988281 78.339844 70.351562 76.171875 C 70.539062 75.097656 72.257812 73.589844 74.101562 72.890625 C 75.570312 72.332031 77.828125 71.882812 79.421875 71.820312 C 79.835938 71.808594 79.882812 71.832031 79.773438 72.03125 Z M 79.773438 72.03125 "/>
<path style=" stroke:none;fill-rule:nonzero;fill:rgb(0%,0%,0%);fill-opacity:1;" d="M 18.941406 61.386719 C 17.222656 61.996094 15.863281 62.90625 14.195312 64.566406 C 13.097656 65.660156 12.800781 66.0625 12.398438 66.882812 C 11.988281 67.71875 11.925781 67.992188 11.9375 68.640625 C 11.953125 69.664062 12.277344 70.398438 12.972656 70.960938 C 13.660156 71.519531 14.03125 71.707031 15.492188 72.230469 C 17.1875 72.84375 18.195312 73.390625 18.195312 73.691406 C 18.195312 73.738281 17.957031 73.816406 17.671875 73.863281 C 15.777344 74.164062 13.410156 74.949219 11.527344 75.882812 C 9.445312 76.945312 7.203125 78.765625 6.667969 79.847656 C 6.304688 80.585938 6.320312 81.957031 6.703125 82.492188 C 7.351562 83.402344 8.886719 83.714844 10.867188 83.339844 C 13.832031 82.765625 16.664062 81.230469 18.894531 78.988281 C 20.289062 77.578125 20.988281 76.421875 21.160156 75.171875 L 21.25 74.488281 L 22.082031 74.449219 C 22.980469 74.414062 23.167969 74.238281 22.992188 73.675781 C 22.917969 73.453125 22.804688 73.429688 21.984375 73.429688 C 21.085938 73.429688 21.050781 73.414062 20.925781 73.078125 C 20.625 72.28125 19.492188 71.457031 17.632812 70.699219 C 15.066406 69.625 14.40625 69.140625 14.21875 68.128906 C 13.996094 66.957031 14.542969 65.847656 16.027344 64.464844 C 17.023438 63.53125 17.894531 63.082031 18.71875 63.082031 C 19.21875 63.082031 19.339844 63.132812 19.515625 63.394531 C 20.027344 64.179688 19.019531 66.210938 17.632812 67.207031 C 17.0625 67.617188 17.046875 67.667969 17.496094 68.230469 C 17.671875 68.453125 17.710938 68.441406 18.355469 68.019531 C 20.375 66.671875 22.183594 64.203125 22.183594 62.792969 C 22.183594 61.222656 20.925781 60.675781 18.941406 61.386719 Z M 18.816406 75.125 C 18.992188 75.558594 18.695312 76.71875 18.234375 77.515625 C 17.820312 78.214844 16.613281 79.449219 15.777344 80.023438 C 14.109375 81.171875 11.601562 82.003906 10.46875 81.78125 C 10.15625 81.71875 9.871094 81.667969 9.820312 81.65625 C 9.78125 81.65625 9.570312 81.507812 9.359375 81.332031 C 8.597656 80.695312 8.9375 79.414062 10.15625 78.226562 C 11.464844 76.980469 14.09375 75.710938 16.449219 75.1875 C 18.570312 74.726562 18.667969 74.726562 18.816406 75.125 Z M 18.816406 75.125 "/>
<path style=" stroke:none;fill-rule:nonzero;fill:rgb(0%,0%,0%);fill-opacity:1;" d="M 121.71875 63.355469 C 121.484375 63.792969 120.796875 65.113281 120.210938 66.296875 C 119.613281 67.480469 119.066406 68.464844 118.980469 68.492188 C 118.902344 68.515625 118.378906 68.628906 117.832031 68.753906 C 117.285156 68.878906 116.574219 69.050781 116.25 69.164062 C 115.738281 69.328125 115.652344 69.402344 115.652344 69.675781 C 115.652344 70.324219 115.789062 70.375 116.734375 70.148438 C 117.195312 70.050781 117.808594 69.914062 118.070312 69.863281 C 118.519531 69.789062 118.554688 69.800781 118.46875 70.011719 C 117.121094 73.316406 116.585938 76.121094 117.121094 77.167969 C 117.820312 78.578125 120.027344 78.464844 121.632812 76.929688 C 122.429688 76.183594 122.519531 75.960938 122.144531 75.621094 C 121.917969 75.421875 121.871094 75.421875 121.234375 75.785156 C 119.664062 76.667969 118.503906 75.972656 118.703125 74.25 C 118.792969 73.402344 119.476562 71.234375 119.988281 70.1875 L 120.324219 69.5 L 121.382812 69.339844 C 121.96875 69.253906 122.78125 69.203125 123.191406 69.214844 L 123.9375 69.253906 L 123.976562 68.804688 C 124.039062 68.105469 123.8125 68.003906 122.292969 68.03125 C 121.597656 68.042969 121.011719 68.003906 121.011719 67.957031 C 121.011719 67.855469 122.691406 64.289062 123.203125 63.316406 C 123.378906 62.980469 123.367188 62.957031 123.015625 62.769531 C 122.367188 62.433594 122.195312 62.519531 121.71875 63.355469 Z M 121.71875 63.355469 "/>
<path style=" stroke:none;fill-rule:nonzero;fill:rgb(0%,0%,0%);fill-opacity:1;" d="M 158.0625 63.105469 C 157.875 63.40625 157.199219 64.703125 156.554688 66.011719 C 155.90625 67.308594 155.355469 68.390625 155.34375 68.417969 C 155.332031 68.441406 154.722656 68.589844 154.011719 68.753906 C 153.300781 68.902344 152.503906 69.128906 152.242188 69.238281 C 151.804688 69.425781 151.78125 69.464844 151.855469 69.839844 C 151.90625 70.0625 151.96875 70.273438 151.992188 70.300781 C 152.015625 70.324219 152.601562 70.222656 153.289062 70.0625 C 153.984375 69.914062 154.582031 69.8125 154.621094 69.863281 C 154.671875 69.898438 154.582031 70.238281 154.433594 70.597656 C 153.648438 72.503906 153.039062 74.875 153.039062 76.019531 C 153.039062 78.339844 155.65625 78.902344 157.710938 77.019531 C 158.632812 76.171875 158.746094 75.960938 158.421875 75.636719 L 158.160156 75.386719 L 157.425781 75.773438 C 156.503906 76.269531 155.941406 76.28125 155.417969 75.847656 C 154.808594 75.335938 154.707031 74.800781 155.019531 73.515625 C 155.269531 72.480469 156.191406 69.914062 156.414062 69.613281 C 156.554688 69.4375 158.808594 69.152344 159.53125 69.214844 L 160.078125 69.253906 L 160.117188 68.726562 C 160.15625 68.21875 160.140625 68.203125 159.65625 68.066406 C 159.355469 67.992188 158.757812 67.96875 158.148438 68.019531 C 157.601562 68.066406 157.152344 68.066406 157.152344 68.019531 C 157.152344 67.96875 157.648438 66.894531 158.261719 65.636719 C 159.667969 62.730469 159.617188 62.894531 159.132812 62.71875 C 158.523438 62.507812 158.421875 62.546875 158.0625 63.105469 Z M 158.0625 63.105469 "/>
<path style=" stroke:none;fill-rule:nonzero;fill:rgb(0%,0%,0%);fill-opacity:1;" d="M 44.515625 64.164062 C 44.265625 64.265625 43.867188 65.152344 43.867188 65.597656 C 43.867188 65.824219 43.980469 66.148438 44.117188 66.324219 C 44.316406 66.597656 44.441406 66.632812 45.125 66.632812 C 45.875 66.632812 45.925781 66.621094 46.199219 66.210938 C 46.359375 65.972656 46.484375 65.597656 46.484375 65.363281 C 46.484375 64.863281 46.199219 64.265625 45.925781 64.152344 C 45.6875 64.066406 44.753906 64.066406 44.515625 64.164062 Z M 44.515625 64.164062 "/>
<path style=" stroke:none;fill-rule:nonzero;fill:rgb(0%,0%,0%);fill-opacity:1;" d="M 167.097656 64.226562 C 166.421875 64.777344 166.273438 65.859375 166.808594 66.398438 C 167.082031 66.671875 167.207031 66.707031 167.832031 66.671875 C 168.417969 66.632812 168.566406 66.585938 168.777344 66.308594 C 168.902344 66.121094 169.039062 65.722656 169.078125 65.425781 C 169.128906 64.964844 169.089844 64.8125 168.804688 64.476562 C 168.515625 64.128906 168.390625 64.078125 167.882812 64.078125 C 167.558594 64.078125 167.207031 64.152344 167.097656 64.226562 Z M 167.097656 64.226562 "/>
<path style=" stroke:none;fill-rule:nonzero;fill:rgb(0%,0%,0%);fill-opacity:1;" d="M 110.480469 67.570312 C 108.621094 67.816406 107.664062 68.527344 107.375 69.898438 C 107.265625 70.386719 107.601562 71.210938 108.496094 72.679688 C 109.480469 74.300781 109.667969 74.726562 109.667969 75.375 C 109.667969 75.859375 109.605469 76.007812 109.246094 76.371094 C 108.882812 76.730469 108.734375 76.792969 108.222656 76.792969 C 107.550781 76.792969 107.289062 76.65625 106.265625 75.757812 C 105.894531 75.433594 105.542969 75.171875 105.480469 75.171875 C 105.40625 75.171875 105.171875 75.324219 104.945312 75.511719 L 104.546875 75.859375 L 105.035156 76.546875 C 105.941406 77.804688 107.238281 78.402344 108.699219 78.242188 C 110.019531 78.101562 110.953125 77.554688 111.425781 76.644531 C 112.011719 75.511719 111.863281 74.738281 110.640625 72.667969 C 109.421875 70.609375 109.320312 70.050781 110.042969 69.339844 C 110.503906 68.867188 111.175781 68.691406 112.449219 68.691406 L 113.519531 68.691406 L 113.609375 68.242188 C 113.707031 67.679688 113.570312 67.570312 112.722656 67.570312 C 112.386719 67.570312 111.898438 67.542969 111.664062 67.519531 C 111.425781 67.496094 110.890625 67.507812 110.480469 67.570312 Z M 110.480469 67.570312 "/>
<path style=" stroke:none;fill-rule:nonzero;fill:rgb(0%,0%,0%);fill-opacity:1;" d="M 187.921875 67.582031 C 186.25 67.757812 185.042969 68.617188 184.878906 69.738281 C 184.769531 70.449219 184.980469 71.097656 185.691406 72.257812 C 186.824219 74.0625 187.109375 74.699219 187.109375 75.347656 C 187.109375 75.882812 187.0625 75.996094 186.648438 76.371094 C 186.261719 76.730469 186.101562 76.792969 185.578125 76.792969 C 184.917969 76.792969 184.667969 76.65625 183.683594 75.695312 C 183.0625 75.109375 182.898438 75.085938 182.351562 75.546875 C 181.953125 75.871094 182.0625 76.144531 182.921875 77.03125 C 183.84375 77.964844 184.753906 78.339844 185.9375 78.253906 C 187.847656 78.128906 189.167969 76.96875 189.179688 75.410156 C 189.179688 74.6875 189.054688 74.386719 187.945312 72.429688 C 187.234375 71.183594 187.0625 70.773438 187.0625 70.347656 C 187.0625 69.277344 188.046875 68.691406 189.878906 68.691406 C 190.6875 68.691406 190.910156 68.652344 190.972656 68.492188 C 191.097656 68.15625 191.0625 67.695312 190.898438 67.632812 C 190.550781 67.53125 188.695312 67.496094 187.921875 67.582031 Z M 187.921875 67.582031 "/>
<path style=" stroke:none;fill-rule:nonzero;fill:rgb(0%,0%,0%);fill-opacity:1;" d="M 51.332031 68.628906 C 50.421875 70.609375 49.039062 75.273438 48.777344 77.242188 C 48.703125 77.878906 48.703125 77.878906 49.113281 78.039062 C 50.324219 78.476562 50.125 78.625 51.144531 76.484375 C 53.265625 72.070312 54.699219 70.3125 56.191406 70.3125 C 56.59375 70.3125 56.742188 70.386719 57.003906 70.699219 C 57.175781 70.910156 57.328125 71.148438 57.328125 71.234375 C 57.328125 71.644531 56.902344 72.90625 56.503906 73.703125 C 55.171875 76.34375 55.144531 77.492188 56.367188 78.054688 C 57.078125 78.363281 57.390625 78.351562 58.261719 77.929688 C 59.421875 77.378906 60.902344 75.683594 60.53125 75.3125 C 60.292969 75.074219 60.070312 75.148438 59.410156 75.734375 C 58.671875 76.371094 58.148438 76.46875 57.75 76.035156 C 57.390625 75.636719 57.476562 74.972656 58.074219 73.664062 C 59.257812 71.035156 59.496094 70.386719 59.496094 69.75 C 59.507812 68.605469 58.746094 67.957031 57.601562 68.117188 C 55.84375 68.355469 54.023438 69.960938 52.003906 73.054688 C 51.519531 73.777344 51.21875 74.140625 51.21875 73.988281 C 51.21875 73.617188 51.882812 71.097656 52.441406 69.351562 L 52.929688 67.832031 L 52.554688 67.707031 C 52.355469 67.632812 52.105469 67.570312 52.003906 67.570312 C 51.90625 67.570312 51.621094 68.03125 51.332031 68.628906 Z M 51.332031 68.628906 "/>
<path style=" stroke:none;fill-rule:nonzero;fill:rgb(0%,0%,0%);fill-opacity:1;" d="M 99.5625 68.378906 C 98.339844 68.777344 96.933594 69.699219 95.796875 70.847656 C 94.167969 72.492188 93.605469 73.617188 93.59375 75.25 C 93.59375 76.519531 93.890625 77.167969 94.75 77.753906 C 95.847656 78.488281 97.40625 78.441406 99.136719 77.605469 C 100.035156 77.179688 101.570312 75.921875 101.570312 75.621094 C 101.570312 75.546875 101.457031 75.410156 101.332031 75.335938 C 101.121094 75.199219 100.933594 75.261719 100.011719 75.746094 C 98.765625 76.421875 97.769531 76.59375 97.121094 76.257812 C 96.746094 76.058594 96.085938 75.375 96.085938 75.1875 C 96.085938 75.125 96.347656 74.988281 96.683594 74.863281 C 97.707031 74.476562 99.738281 73.492188 100.507812 72.992188 C 101.433594 72.394531 102.691406 71.148438 102.976562 70.535156 C 103.214844 70.039062 103.261719 69.050781 103.0625 68.679688 C 102.691406 68.003906 101.15625 67.867188 99.5625 68.378906 Z M 101.070312 69.714844 C 101.894531 70.609375 100.597656 72.144531 97.890625 73.476562 C 97.144531 73.851562 96.382812 74.1875 96.222656 74.238281 C 95.9375 74.324219 95.9375 74.3125 96.011719 73.851562 C 96.285156 72.367188 97.816406 70.398438 99.25 69.6875 C 99.949219 69.351562 100.734375 69.351562 101.070312 69.714844 Z M 101.070312 69.714844 "/>
<path style=" stroke:none;fill-rule:nonzero;fill:rgb(0%,0%,0%);fill-opacity:1;" d="M 145.796875 68.378906 C 144.589844 68.777344 143.191406 69.6875 142.035156 70.835938 C 140.414062 72.46875 139.839844 73.617188 139.828125 75.25 C 139.828125 76.519531 140.128906 77.167969 140.988281 77.753906 C 142.519531 78.789062 145.210938 78.191406 147.09375 76.421875 L 147.867188 75.683594 L 147.605469 75.421875 L 147.355469 75.160156 L 146.269531 75.746094 C 144.886719 76.46875 143.992188 76.605469 143.230469 76.171875 C 142.808594 75.933594 142.207031 75.234375 142.347656 75.125 C 142.359375 75.097656 143.007812 74.824219 143.753906 74.5 C 147.378906 72.980469 149.425781 71.160156 149.425781 69.464844 C 149.425781 69.164062 149.363281 68.816406 149.289062 68.667969 C 148.9375 68.019531 147.355469 67.878906 145.796875 68.378906 Z M 147.292969 69.761719 C 147.441406 69.949219 147.554688 70.210938 147.554688 70.347656 C 147.554688 70.835938 146.917969 71.683594 146.085938 72.320312 C 145.335938 72.890625 143.21875 74.015625 142.457031 74.238281 C 142.171875 74.324219 142.160156 74.3125 142.234375 73.851562 C 142.457031 72.519531 144.140625 70.335938 145.4375 69.714844 C 146.234375 69.328125 146.96875 69.351562 147.292969 69.761719 Z M 147.292969 69.761719 "/>
<path style=" stroke:none;fill-rule:nonzero;fill:rgb(0%,0%,0%);fill-opacity:1;" d="M 178.089844 68.328125 C 176.492188 68.753906 174.574219 69.9375 173.390625 71.210938 C 170.996094 73.816406 170.835938 76.667969 173.015625 77.867188 C 173.578125 78.164062 173.800781 78.214844 174.609375 78.214844 C 175.472656 78.214844 175.683594 78.152344 176.605469 77.703125 C 177.675781 77.191406 178.574219 76.40625 179.097656 75.558594 C 179.371094 75.097656 179.347656 74.886719 178.984375 74.6875 C 178.785156 74.574219 178.613281 74.664062 177.949219 75.199219 C 176.855469 76.082031 176.230469 76.332031 175.371094 76.269531 C 174.773438 76.222656 174.625 76.144531 174.261719 75.757812 C 173.875 75.335938 173.851562 75.234375 173.851562 74.464844 C 173.851562 73.242188 174.285156 72.382812 175.496094 71.222656 C 176.792969 70.011719 178.113281 69.414062 180.121094 69.128906 L 180.707031 69.050781 L 180.707031 68.066406 L 179.871094 68.082031 C 179.398438 68.082031 178.597656 68.191406 178.089844 68.328125 Z M 178.089844 68.328125 "/>
<path style=" stroke:none;fill-rule:nonzero;fill:rgb(0%,0%,0%);fill-opacity:1;" d="M 42.945312 68.589844 C 42.597656 69.128906 41.398438 71.746094 41.089844 72.679688 C 40.367188 74.8125 40.191406 76.867188 40.691406 77.617188 C 40.964844 78.039062 41.660156 78.328125 42.171875 78.214844 C 43.132812 78.015625 44.417969 77.019531 45.101562 75.945312 C 45.5625 75.222656 45.5625 75.222656 45.226562 75.035156 C 44.988281 74.925781 44.890625 74.960938 44.441406 75.398438 C 44.167969 75.660156 43.792969 75.972656 43.617188 76.097656 C 42.871094 76.582031 42 76.109375 42 75.1875 C 42 74.625 42.757812 72.257812 43.570312 70.347656 C 43.867188 69.625 44.117188 68.988281 44.117188 68.941406 C 44.117188 68.902344 43.894531 68.742188 43.617188 68.578125 L 43.132812 68.304688 Z M 42.945312 68.589844 "/>
<path style=" stroke:none;fill-rule:nonzero;fill:rgb(0%,0%,0%);fill-opacity:1;" d="M 165.652344 68.480469 C 165.4375 68.742188 164.503906 70.671875 164.066406 71.746094 C 163.171875 74 162.796875 76.183594 163.15625 77.21875 C 163.496094 78.214844 164.492188 78.488281 165.625 77.917969 C 166.25 77.59375 167.433594 76.445312 167.832031 75.773438 C 168.09375 75.324219 168.09375 75.3125 167.867188 75.109375 C 167.644531 74.898438 167.59375 74.925781 166.972656 75.484375 C 165.960938 76.382812 165.449219 76.507812 164.914062 75.972656 C 164.628906 75.683594 164.605469 75.585938 164.667969 74.949219 C 164.726562 74.226562 165.550781 71.796875 166.324219 70.023438 C 166.558594 69.488281 166.746094 69.015625 166.746094 68.953125 C 166.746094 68.902344 166.535156 68.742188 166.261719 68.589844 C 165.886719 68.378906 165.75 68.355469 165.652344 68.480469 Z M 165.652344 68.480469 "/>
<path style=" stroke:none;fill-rule:nonzero;fill:rgb(0%,0%,0%);fill-opacity:1;" d="M 65.925781 70.523438 C 65.167969 70.585938 62.648438 70.933594 62.597656 70.984375 C 62.574219 71.011719 62.625 71.320312 62.699219 71.683594 L 62.835938 72.34375 L 63.484375 72.269531 C 64.730469 72.132812 67.984375 71.671875 68.207031 71.609375 C 68.367188 71.558594 68.417969 71.410156 68.417969 70.984375 L 68.417969 70.4375 L 67.460938 70.460938 C 66.921875 70.472656 66.238281 70.5 65.925781 70.523438 Z M 65.925781 70.523438 "/>
<path style=" stroke:none;fill-rule:nonzero;fill:rgb(0%,0%,0%);fill-opacity:1;" d="M 165.152344 90.097656 C 164.703125 90.183594 164.042969 90.894531 163.894531 91.480469 C 163.53125 92.789062 164.503906 94 165.914062 94 C 166.050781 94 166.410156 93.875 166.710938 93.738281 C 167.234375 93.488281 167.246094 93.460938 167.046875 93.238281 C 166.847656 93.027344 166.808594 93.011719 166.546875 93.1875 C 166.386719 93.289062 166.023438 93.375 165.75 93.375 C 165.339844 93.375 165.152344 93.300781 164.867188 93.011719 C 164.554688 92.703125 164.503906 92.550781 164.503906 92.003906 C 164.503906 91.453125 164.554688 91.304688 164.867188 90.992188 C 165.152344 90.707031 165.339844 90.632812 165.75 90.632812 C 166.023438 90.632812 166.386719 90.71875 166.546875 90.820312 C 166.808594 90.992188 166.847656 90.980469 167.046875 90.769531 C 167.246094 90.546875 167.234375 90.519531 166.710938 90.269531 C 166.199219 90.019531 165.789062 89.972656 165.152344 90.097656 Z M 165.152344 90.097656 "/>
<path style=" stroke:none;fill-rule:nonzero;fill:rgb(0%,0%,0%);fill-opacity:1;" d="M 24.960938 91.03125 C 24.75 91.53125 24.375 92.378906 24.128906 92.902344 L 23.691406 93.875 L 24.039062 93.875 C 24.351562 93.875 24.425781 93.796875 24.550781 93.4375 L 24.699219 93 L 26.621094 93 L 26.832031 93.4375 C 26.992188 93.773438 27.117188 93.875 27.367188 93.875 C 27.578125 93.875 27.667969 93.824219 27.628906 93.710938 C 27.59375 93.636719 27.21875 92.789062 26.792969 91.839844 C 26.070312 90.269531 25.984375 90.132812 25.683594 90.132812 C 25.386719 90.132812 25.296875 90.246094 24.960938 91.03125 Z M 26.308594 92.214844 C 26.40625 92.488281 26.382812 92.503906 25.734375 92.503906 C 25.359375 92.503906 25.050781 92.453125 25.050781 92.378906 C 25.050781 92.316406 25.199219 91.941406 25.375 91.542969 L 25.699219 90.820312 L 25.945312 91.378906 C 26.082031 91.691406 26.246094 92.066406 26.308594 92.214844 Z M 26.308594 92.214844 "/>
<path style=" stroke:none;fill-rule:nonzero;fill:rgb(0%,0%,0%);fill-opacity:1;" d="M 34.644531 91.992188 L 34.644531 93.875 L 35.753906 93.875 C 36.964844 93.875 37.574219 93.722656 37.761719 93.375 C 37.972656 92.988281 37.898438 92.503906 37.585938 92.191406 C 37.324219 91.929688 37.3125 91.878906 37.488281 91.703125 C 37.773438 91.429688 37.722656 90.792969 37.398438 90.46875 C 37.164062 90.234375 36.964844 90.195312 35.890625 90.160156 L 34.644531 90.109375 Z M 36.777344 90.757812 C 36.914062 90.832031 37.011719 91.019531 37.011719 91.191406 C 37.011719 91.59375 36.6875 91.753906 35.902344 91.753906 L 35.269531 91.753906 L 35.269531 90.632812 L 35.902344 90.632812 C 36.253906 90.632812 36.640625 90.695312 36.777344 90.757812 Z M 37.027344 92.378906 C 37.152344 92.453125 37.261719 92.613281 37.261719 92.75 C 37.261719 93.136719 36.777344 93.375 35.992188 93.375 L 35.269531 93.375 L 35.269531 92.253906 L 36.027344 92.253906 C 36.441406 92.253906 36.890625 92.316406 37.027344 92.378906 Z M 37.027344 92.378906 "/>
<path style=" stroke:none;fill-rule:nonzero;fill:rgb(0%,0%,0%);fill-opacity:1;" d="M 41.125 92.003906 L 41.125 93.875 L 42.496094 93.875 C 43.78125 93.875 43.867188 93.859375 43.867188 93.625 C 43.867188 93.398438 43.78125 93.375 43.007812 93.375 C 41.847656 93.375 41.75 93.324219 41.75 92.738281 L 41.75 92.253906 L 42.683594 92.253906 C 43.53125 92.253906 43.617188 92.226562 43.617188 92.003906 C 43.617188 91.777344 43.53125 91.753906 42.882812 91.753906 C 41.886719 91.753906 41.75 91.679688 41.75 91.191406 C 41.75 90.695312 41.886719 90.632812 43.007812 90.632812 C 43.78125 90.632812 43.867188 90.605469 43.867188 90.382812 C 43.867188 90.144531 43.78125 90.132812 42.496094 90.132812 L 41.125 90.132812 Z M 41.125 92.003906 "/>
<path style=" stroke:none;fill-rule:nonzero;fill:rgb(0%,0%,0%);fill-opacity:1;" d="M 46.734375 90.445312 C 46.734375 90.730469 46.769531 90.757812 47.355469 90.757812 L 47.980469 90.757812 L 47.980469 93.875 L 48.601562 93.875 L 48.601562 90.757812 L 49.226562 90.757812 C 49.8125 90.757812 49.851562 90.730469 49.851562 90.445312 L 49.851562 90.132812 L 46.734375 90.132812 Z M 46.734375 90.445312 "/>
<path style=" stroke:none;fill-rule:nonzero;fill:rgb(0%,0%,0%);fill-opacity:1;" d="M 52.46875 90.445312 C 52.46875 90.730469 52.503906 90.757812 53.089844 90.757812 L 53.714844 90.757812 L 53.714844 93.875 L 54.335938 93.875 L 54.335938 90.757812 L 54.960938 90.757812 C 55.546875 90.757812 55.582031 90.730469 55.582031 90.445312 L 55.582031 90.132812 L 52.46875 90.132812 Z M 52.46875 90.445312 "/>
<path style=" stroke:none;fill-rule:nonzero;fill:rgb(0%,0%,0%);fill-opacity:1;" d="M 58.574219 92.003906 L 58.574219 93.875 L 60.007812 93.875 C 61.351562 93.875 61.441406 93.859375 61.441406 93.625 C 61.441406 93.414062 61.339844 93.386719 60.417969 93.351562 L 59.382812 93.3125 L 59.347656 92.777344 L 59.308594 92.253906 L 60.179688 92.253906 C 60.980469 92.253906 61.066406 92.226562 61.066406 92.003906 C 61.066406 91.792969 60.964844 91.765625 60.230469 91.730469 L 59.382812 91.691406 L 59.382812 90.695312 L 60.355469 90.65625 C 61.214844 90.621094 61.316406 90.59375 61.316406 90.382812 C 61.316406 90.144531 61.226562 90.132812 59.945312 90.132812 L 58.574219 90.132812 Z M 58.574219 92.003906 "/>
<path style=" stroke:none;fill-rule:nonzero;fill:rgb(0%,0%,0%);fill-opacity:1;" d="M 64.679688 92.003906 L 64.679688 93.875 L 64.992188 93.875 C 65.277344 93.875 65.304688 93.824219 65.304688 93.3125 L 65.304688 92.75 L 65.851562 92.75 C 66.363281 92.75 66.425781 92.789062 66.761719 93.3125 C 67.035156 93.761719 67.183594 93.875 67.472656 93.875 C 67.871094 93.875 67.894531 93.972656 67.222656 92.9375 C 67.023438 92.640625 67.035156 92.613281 67.335938 92.363281 C 67.734375 92.054688 67.882812 91.40625 67.644531 90.917969 C 67.398438 90.382812 66.773438 90.132812 65.652344 90.132812 L 64.679688 90.132812 Z M 66.921875 91.007812 C 67.234375 91.316406 67.234375 91.515625 66.949219 91.878906 C 66.773438 92.089844 66.585938 92.152344 66.050781 92.164062 L 65.367188 92.191406 L 65.328125 91.46875 L 65.289062 90.757812 L 65.988281 90.757812 C 66.511719 90.757812 66.734375 90.820312 66.921875 91.007812 Z M 66.921875 91.007812 "/>
<path style=" stroke:none;fill-rule:nonzero;fill:rgb(0%,0%,0%);fill-opacity:1;" d="M 75.023438 91.992188 L 75.023438 93.875 L 76.132812 93.875 C 77.34375 93.875 77.953125 93.722656 78.140625 93.375 C 78.351562 92.988281 78.277344 92.503906 77.964844 92.191406 C 77.703125 91.929688 77.691406 91.878906 77.863281 91.703125 C 78.152344 91.429688 78.101562 90.792969 77.777344 90.46875 C 77.542969 90.234375 77.34375 90.195312 76.269531 90.160156 L 75.023438 90.109375 Z M 77.15625 90.757812 C 77.292969 90.832031 77.390625 91.019531 77.390625 91.191406 C 77.390625 91.59375 77.066406 91.753906 76.28125 91.753906 L 75.648438 91.753906 L 75.648438 90.632812 L 76.28125 90.632812 C 76.632812 90.632812 77.019531 90.695312 77.15625 90.757812 Z M 77.402344 92.378906 C 77.527344 92.453125 77.640625 92.613281 77.640625 92.75 C 77.640625 93.136719 77.15625 93.375 76.371094 93.375 L 75.648438 93.375 L 75.648438 92.253906 L 76.40625 92.253906 C 76.820312 92.253906 77.265625 92.316406 77.402344 92.378906 Z M 77.402344 92.378906 "/>
<path style=" stroke:none;fill-rule:nonzero;fill:rgb(0%,0%,0%);fill-opacity:1;" d="M 81.503906 92.003906 L 81.503906 93.875 L 82.875 93.875 C 84.160156 93.875 84.246094 93.859375 84.246094 93.625 C 84.246094 93.398438 84.160156 93.375 83.386719 93.375 C 82.226562 93.375 82.128906 93.324219 82.128906 92.738281 L 82.128906 92.253906 L 83.0625 92.253906 C 83.910156 92.253906 83.996094 92.226562 83.996094 92.003906 C 83.996094 91.777344 83.910156 91.753906 83.261719 91.753906 C 82.265625 91.753906 82.128906 91.679688 82.128906 91.191406 C 82.128906 90.695312 82.265625 90.632812 83.386719 90.632812 C 84.160156 90.632812 84.246094 90.605469 84.246094 90.382812 C 84.246094 90.144531 84.160156 90.132812 82.875 90.132812 L 81.503906 90.132812 Z M 81.503906 92.003906 "/>
<path style=" stroke:none;fill-rule:nonzero;fill:rgb(0%,0%,0%);fill-opacity:1;" d="M 88.558594 90.53125 C 88.472656 90.757812 88.097656 91.578125 87.746094 92.363281 C 87.398438 93.136719 87.113281 93.796875 87.113281 93.824219 C 87.113281 93.847656 87.25 93.875 87.425781 93.875 C 87.660156 93.875 87.773438 93.773438 87.910156 93.4375 L 88.097656 93 L 89.980469 93 L 90.191406 93.4375 C 90.351562 93.773438 90.476562 93.875 90.738281 93.875 L 91.074219 93.875 L 90.242188 92.027344 C 89.492188 90.382812 89.367188 90.195312 89.070312 90.160156 C 88.792969 90.121094 88.707031 90.195312 88.558594 90.53125 Z M 89.40625 91.578125 C 89.578125 91.964844 89.730469 92.328125 89.730469 92.390625 C 89.730469 92.453125 89.417969 92.503906 89.042969 92.503906 C 88.671875 92.503906 88.359375 92.476562 88.359375 92.453125 C 88.359375 92.351562 89.007812 90.882812 89.054688 90.882812 C 89.070312 90.882812 89.230469 91.191406 89.40625 91.578125 Z M 89.40625 91.578125 "/>
<path style=" stroke:none;fill-rule:nonzero;fill:rgb(0%,0%,0%);fill-opacity:1;" d="M 94.117188 91.703125 C 94.152344 93.238281 94.167969 93.273438 94.503906 93.5625 C 95.152344 94.121094 96.359375 94.085938 96.90625 93.488281 C 97.105469 93.261719 97.15625 92.988281 97.183594 91.679688 L 97.230469 90.132812 L 96.582031 90.132812 L 96.582031 91.480469 C 96.582031 93.101562 96.460938 93.375 95.699219 93.375 C 94.851562 93.375 94.714844 93.113281 94.714844 91.503906 L 94.714844 90.132812 L 94.066406 90.132812 Z M 94.117188 91.703125 "/>
<path style=" stroke:none;fill-rule:nonzero;fill:rgb(0%,0%,0%);fill-opacity:1;" d="M 100.199219 90.445312 C 100.199219 90.730469 100.234375 90.757812 100.820312 90.757812 L 101.445312 90.757812 L 101.445312 93.875 L 102.066406 93.875 L 102.066406 90.757812 L 102.691406 90.757812 C 103.277344 90.757812 103.3125 90.730469 103.3125 90.445312 L 103.3125 90.132812 L 100.199219 90.132812 Z M 100.199219 90.445312 "/>
<path style=" stroke:none;fill-rule:nonzero;fill:rgb(0%,0%,0%);fill-opacity:1;" d="M 105.84375 90.222656 C 105.867188 90.28125 106.179688 90.808594 106.527344 91.394531 C 107.101562 92.351562 107.175781 92.550781 107.175781 93.175781 C 107.175781 93.875 107.175781 93.875 107.550781 93.875 C 107.925781 93.875 107.925781 93.875 107.925781 93.175781 C 107.925781 92.550781 108 92.351562 108.574219 91.394531 C 108.921875 90.808594 109.234375 90.28125 109.257812 90.222656 C 109.28125 90.171875 109.171875 90.132812 108.996094 90.132812 C 108.746094 90.132812 108.585938 90.296875 108.160156 91.007812 C 107.875 91.480469 107.613281 91.878906 107.5625 91.878906 C 107.527344 91.878906 107.265625 91.480469 106.988281 91.007812 C 106.554688 90.257812 106.441406 90.132812 106.140625 90.132812 C 105.941406 90.132812 105.820312 90.171875 105.84375 90.222656 Z M 105.84375 90.222656 "/>
<path style=" stroke:none;fill-rule:nonzero;fill:rgb(0%,0%,0%);fill-opacity:1;" d="M 116.273438 92.003906 L 116.273438 93.875 L 117.644531 93.875 C 118.929688 93.875 119.015625 93.859375 119.015625 93.625 C 119.015625 93.414062 118.917969 93.386719 117.996094 93.351562 L 116.960938 93.3125 L 116.921875 92.777344 L 116.886719 92.253906 L 117.820312 92.253906 C 118.679688 92.253906 118.765625 92.226562 118.765625 92.003906 C 118.765625 91.792969 118.667969 91.765625 117.871094 91.730469 L 116.960938 91.691406 L 116.960938 90.695312 L 117.933594 90.65625 C 118.792969 90.621094 118.890625 90.59375 118.890625 90.382812 C 118.890625 90.144531 118.804688 90.132812 117.582031 90.132812 L 116.273438 90.132812 Z M 116.273438 92.003906 "/>
<path style=" stroke:none;fill-rule:nonzero;fill:rgb(0%,0%,0%);fill-opacity:1;" d="M 122.441406 90.90625 C 122.753906 91.34375 123.042969 91.765625 123.078125 91.839844 C 123.117188 91.929688 122.867188 92.390625 122.519531 92.875 C 122.167969 93.351562 121.882812 93.773438 121.882812 93.8125 C 121.882812 93.847656 122.042969 93.875 122.230469 93.875 C 122.480469 93.875 122.644531 93.773438 122.78125 93.523438 C 122.90625 93.335938 123.128906 93.027344 123.289062 92.828125 L 123.589844 92.464844 L 124.074219 93.164062 C 124.5 93.773438 124.613281 93.859375 124.972656 93.875 L 125.371094 93.875 L 124.675781 92.925781 C 124.289062 92.414062 124.011719 91.917969 124.050781 91.839844 C 124.089844 91.753906 124.375 91.34375 124.6875 90.90625 L 125.261719 90.132812 L 124.898438 90.132812 C 124.613281 90.132812 124.460938 90.246094 124.113281 90.757812 C 123.875 91.09375 123.652344 91.378906 123.601562 91.378906 C 123.566406 91.378906 123.316406 91.09375 123.066406 90.757812 C 122.691406 90.246094 122.542969 90.132812 122.242188 90.132812 L 121.871094 90.132812 Z M 122.441406 90.90625 "/>
<path style=" stroke:none;fill-rule:nonzero;fill:rgb(0%,0%,0%);fill-opacity:1;" d="M 128.363281 92.003906 L 128.363281 93.875 L 128.675781 93.875 C 128.960938 93.875 128.984375 93.824219 128.984375 93.3125 L 128.984375 92.75 L 129.648438 92.75 C 130.96875 92.75 131.714844 91.941406 131.304688 90.957031 C 131.054688 90.359375 130.519531 90.132812 129.296875 90.132812 L 128.363281 90.132812 Z M 130.492188 90.882812 C 130.65625 90.96875 130.730469 91.144531 130.730469 91.441406 C 130.730469 91.980469 130.480469 92.128906 129.621094 92.128906 L 128.984375 92.128906 L 128.984375 90.757812 L 129.621094 90.757812 C 129.96875 90.757812 130.355469 90.820312 130.492188 90.882812 Z M 130.492188 90.882812 "/>
<path style=" stroke:none;fill-rule:nonzero;fill:rgb(0%,0%,0%);fill-opacity:1;" d="M 134.59375 92.003906 L 134.59375 93.875 L 135.964844 93.875 C 137.25 93.875 137.335938 93.859375 137.335938 93.625 C 137.335938 93.398438 137.25 93.375 136.476562 93.375 C 135.316406 93.375 135.21875 93.324219 135.21875 92.738281 L 135.21875 92.253906 L 136.152344 92.253906 C 137 92.253906 137.085938 92.226562 137.085938 92.003906 C 137.085938 91.777344 137 91.753906 136.351562 91.753906 C 135.355469 91.753906 135.21875 91.679688 135.21875 91.191406 C 135.21875 90.695312 135.355469 90.632812 136.476562 90.632812 C 137.25 90.632812 137.335938 90.605469 137.335938 90.382812 C 137.335938 90.144531 137.25 90.132812 135.964844 90.132812 L 134.59375 90.132812 Z M 134.59375 92.003906 "/>
<path style=" stroke:none;fill-rule:nonzero;fill:rgb(0%,0%,0%);fill-opacity:1;" d="M 140.699219 92.003906 L 140.699219 93.875 L 141.011719 93.875 C 141.300781 93.875 141.324219 93.824219 141.324219 93.3125 L 141.324219 92.75 L 141.859375 92.75 C 142.347656 92.75 142.40625 92.800781 142.757812 93.3125 C 143.054688 93.75 143.207031 93.875 143.480469 93.875 L 143.828125 93.875 L 143.441406 93.324219 C 143.007812 92.675781 142.992188 92.613281 143.304688 92.414062 C 143.703125 92.164062 143.867188 91.480469 143.640625 90.945312 C 143.394531 90.359375 142.855469 90.132812 141.636719 90.132812 L 140.699219 90.132812 Z M 142.832031 90.882812 C 143.117188 91.042969 143.15625 91.777344 142.882812 92.003906 C 142.78125 92.089844 142.40625 92.164062 142.046875 92.179688 L 141.386719 92.191406 L 141.347656 91.46875 L 141.3125 90.757812 L 141.945312 90.757812 C 142.296875 90.757812 142.695312 90.820312 142.832031 90.882812 Z M 142.832031 90.882812 "/>
<path style=" stroke:none;fill-rule:nonzero;fill:rgb(0%,0%,0%);fill-opacity:1;" d="M 147.054688 92.003906 L 147.054688 93.875 L 147.679688 93.875 L 147.679688 90.132812 L 147.054688 90.132812 Z M 147.054688 92.003906 "/>
<path style=" stroke:none;fill-rule:nonzero;fill:rgb(0%,0%,0%);fill-opacity:1;" d="M 151.167969 92.003906 L 151.167969 93.875 L 152.539062 93.875 C 153.824219 93.875 153.910156 93.859375 153.910156 93.625 C 153.910156 93.398438 153.824219 93.375 153.050781 93.375 C 151.890625 93.375 151.792969 93.324219 151.792969 92.738281 L 151.792969 92.253906 L 152.726562 92.253906 C 153.574219 92.253906 153.660156 92.226562 153.660156 92.003906 C 153.660156 91.777344 153.574219 91.753906 152.925781 91.753906 C 151.929688 91.753906 151.792969 91.679688 151.792969 91.191406 C 151.792969 90.695312 151.929688 90.632812 153.050781 90.632812 C 153.824219 90.632812 153.910156 90.605469 153.910156 90.382812 C 153.910156 90.144531 153.824219 90.132812 152.539062 90.132812 L 151.167969 90.132812 Z M 151.167969 92.003906 "/>
<path style=" stroke:none;fill-rule:nonzero;fill:rgb(0%,0%,0%);fill-opacity:1;" d="M 157.277344 92.003906 L 157.277344 93.875 L 157.585938 93.875 C 157.886719 93.875 157.886719 93.859375 157.925781 92.613281 L 157.960938 91.34375 L 158.996094 92.613281 C 159.667969 93.425781 160.117188 93.875 160.265625 93.875 C 160.503906 93.875 160.515625 93.773438 160.515625 92.003906 L 160.515625 90.132812 L 160.203125 90.132812 C 159.90625 90.132812 159.90625 90.144531 159.867188 91.394531 L 159.832031 92.640625 L 158.832031 91.394531 C 158.109375 90.496094 157.761719 90.144531 157.5625 90.144531 C 157.277344 90.132812 157.277344 90.144531 157.277344 92.003906 Z M 157.277344 92.003906 "/>
<path style=" stroke:none;fill-rule:nonzero;fill:rgb(0%,0%,0%);fill-opacity:1;" d="M 170.363281 92.003906 L 170.363281 93.875 L 171.792969 93.875 C 173.140625 93.875 173.226562 93.859375 173.226562 93.625 C 173.226562 93.414062 173.128906 93.386719 172.207031 93.351562 L 171.171875 93.3125 L 171.132812 92.777344 L 171.097656 92.253906 L 171.96875 92.253906 C 172.765625 92.253906 172.855469 92.226562 172.855469 92.003906 C 172.855469 91.792969 172.753906 91.765625 172.019531 91.730469 L 171.171875 91.691406 L 171.171875 90.695312 L 172.144531 90.65625 C 173.003906 90.621094 173.101562 90.59375 173.101562 90.382812 C 173.101562 90.144531 173.015625 90.132812 171.730469 90.132812 L 170.363281 90.132812 Z M 170.363281 92.003906 "/>
</g>
</svg>
